<svg width="186" height="24" viewBox="0 0 186 24" fill="none" xmlns="http://www.w3.org/2000/svg">
<path d="M149.407 4.62549C147.86 4.62549 146.607 5.88157 146.607 7.43195C146.607 8.98234 147.86 10.2384 149.407 10.2384C150.954 10.2384 152.207 8.98234 152.207 7.43195C152.207 5.88157 150.954 4.62549 149.407 4.62549ZM149.407 8.67752C148.72 8.67752 148.162 8.1178 148.162 7.42932C148.162 6.74085 148.72 6.18113 149.407 6.18113C150.094 6.18113 150.652 6.74085 150.652 7.42932C150.652 8.1178 150.094 8.67752 149.407 8.67752Z" fill="#C9212B"/>
<path d="M7.13822 18.9784C5.60729 18.9784 4.3254 18.7235 3.29255 18.2163C2.25969 17.7092 1.47064 16.9813 0.927995 16.0379C0.382732 15.0945 0.0838865 13.9961 0.028836 12.7374C0.0104858 12.3669 0 11.9465 0 11.4761C0 11.0057 0.00786436 10.5931 0.028836 10.241C0.0838865 8.96393 0.398461 7.86026 0.969938 6.9274C1.54141 5.99454 2.34358 5.2719 3.37643 4.76474C4.40929 4.25758 5.66234 4.00269 7.14084 4.00269C8.61934 4.00269 9.84356 4.25758 10.8764 4.76474C11.9093 5.27453 12.7114 5.99454 13.2829 6.9274C13.8544 7.86026 14.169 8.96655 14.224 10.241C14.2607 10.5931 14.2791 11.0031 14.2791 11.4761C14.2791 11.9491 14.2607 12.3695 14.224 12.7374C14.169 13.9961 13.8675 15.0945 13.3249 16.0379C12.7796 16.9813 11.9932 17.7065 10.9603 18.2163C9.92745 18.7235 8.65342 18.9784 7.14084 18.9784H7.13822ZM7.13822 15.9275C8.04262 15.9275 8.7242 15.6464 9.18557 15.0814C9.64695 14.5164 9.89599 13.6913 9.93269 12.5981C9.95104 12.3196 9.96152 11.9517 9.96152 11.4892C9.96152 11.0267 9.95104 10.6562 9.93269 10.3803C9.89599 9.30816 9.64695 8.48567 9.18557 7.91282C8.7242 7.33996 8.04262 7.05353 7.13822 7.05353C6.23382 7.05353 5.547 7.33996 5.07776 7.91282C4.60852 8.48567 4.35423 9.30816 4.31753 10.3803C4.29918 10.6588 4.2887 11.0267 4.2887 11.4892C4.2887 11.9517 4.29656 12.3222 4.31753 12.5981C4.35423 13.6887 4.60852 14.5164 5.07776 15.0814C5.547 15.6464 6.23644 15.9275 7.13822 15.9275Z" fill="#1A233C"/>
<path d="M17.8468 18.6998C17.6633 18.6998 17.506 18.6341 17.3776 18.5053C17.2491 18.3766 17.1836 18.211 17.1836 18.0061V4.9723C17.1836 4.76996 17.2491 4.60178 17.3776 4.47302C17.506 4.34426 17.6633 4.27856 17.8468 4.27856H20.6151C20.8169 4.27856 20.9847 4.34426 21.1132 4.47302C21.2416 4.60178 21.3071 4.76996 21.3071 4.9723V9.74171H26.9249V4.9723C26.9249 4.76996 26.9905 4.60178 27.1189 4.47302C27.2474 4.34426 27.4125 4.27856 27.617 4.27856H30.3826C30.5661 4.27856 30.7234 4.34426 30.8545 4.47302C30.9829 4.60178 31.0485 4.76996 31.0485 4.9723V18.0087C31.0485 18.2137 30.9829 18.3792 30.8545 18.508C30.726 18.6367 30.5687 18.7024 30.3826 18.7024H27.617C27.4125 18.7024 27.2474 18.6367 27.1189 18.508C26.9905 18.3792 26.9249 18.2137 26.9249 18.0087V13.0159H21.3071V18.0087C21.3071 18.2137 21.2416 18.3792 21.1132 18.508C20.9847 18.6367 20.8169 18.7024 20.6151 18.7024H17.8468V18.6998Z" fill="#1A233C"/>
<path d="M35.2796 18.6998C35.0961 18.6998 34.9388 18.6341 34.8078 18.5053C34.6793 18.3766 34.6138 18.211 34.6138 18.0061V4.9723C34.6138 4.76996 34.6793 4.60178 34.8078 4.47302C34.9362 4.34426 35.0935 4.27856 35.2796 4.27856H37.9902C38.1921 4.27856 38.3598 4.34426 38.4883 4.47302C38.6167 4.60178 38.6823 4.76996 38.6823 4.9723V9.74171H40.4255L43.6342 4.72266C43.6892 4.61229 43.7758 4.50981 43.8963 4.41784C44.0169 4.32586 44.1768 4.27856 44.3813 4.27856H47.3986C47.5638 4.27856 47.7079 4.33112 47.8285 4.43098C47.9491 4.53346 48.0094 4.65696 48.0094 4.80412C48.0094 4.8593 47.9963 4.925 47.9675 4.99857C47.9412 5.07215 47.9072 5.13785 47.8705 5.19303L43.9697 11.2395L48.4813 17.8142C48.5547 17.9246 48.5914 18.0455 48.5914 18.1742C48.5914 18.3214 48.5363 18.4475 48.4262 18.55C48.3161 18.6525 48.1772 18.7024 48.012 18.7024H44.6644C44.4783 18.7024 44.3263 18.6604 44.2083 18.5763C44.0877 18.4922 43.9828 18.3871 43.8911 18.2583L40.4046 13.0448H38.6901V18.0087C38.6901 18.2137 38.6246 18.3792 38.4961 18.508C38.3677 18.6367 38.1999 18.7024 37.9981 18.7024H35.2875L35.2796 18.6998Z" fill="#1A233C"/>
<path d="M57.4729 18.9784C55.9419 18.9784 54.6601 18.7235 53.6272 18.2163C52.5943 17.7092 51.8053 16.9813 51.26 16.0379C50.7148 15.0945 50.4159 13.9961 50.3609 12.7374C50.3425 12.3669 50.332 11.9465 50.332 11.4761C50.332 11.0057 50.3399 10.5931 50.3609 10.241C50.4159 8.96393 50.7305 7.86026 51.302 6.9274C51.8734 5.99454 52.6756 5.2719 53.7085 4.76474C54.7413 4.25758 55.997 4.00269 57.4729 4.00269C58.9488 4.00269 60.1756 4.25758 61.2084 4.76474C62.2413 5.27453 63.0435 5.99454 63.6149 6.9274C64.1864 7.86026 64.501 8.96655 64.556 10.241C64.5927 10.5931 64.6111 11.0031 64.6111 11.4761C64.6111 11.9491 64.5927 12.3695 64.556 12.7374C64.501 13.9961 64.1995 15.0945 63.6569 16.0379C63.1116 16.9813 62.3226 17.7065 61.2897 18.2163C60.2569 18.7235 58.9828 18.9784 57.4702 18.9784H57.4729ZM57.4729 15.9275C58.3773 15.9275 59.0589 15.6464 59.5202 15.0814C59.9816 14.5164 60.2306 13.6913 60.2673 12.5981C60.2857 12.3196 60.2962 11.9517 60.2962 11.4892C60.2962 11.0267 60.2857 10.6562 60.2673 10.3803C60.2306 9.30816 59.9816 8.48567 59.5202 7.91282C59.0589 7.33996 58.3773 7.05353 57.4729 7.05353C56.5685 7.05353 55.8816 7.33996 55.4124 7.91282C54.9405 8.48567 54.6889 9.30816 54.6522 10.3803C54.6338 10.6588 54.626 11.0267 54.626 11.4892C54.626 11.9517 54.6338 12.3222 54.6522 12.5981C54.6889 13.6887 54.9432 14.5164 55.4124 15.0814C55.8816 15.6464 56.5711 15.9275 57.4729 15.9275Z" fill="#1A233C"/>
<path d="M67.1564 18.6998C66.9729 18.6998 66.8104 18.6315 66.6715 18.4922C66.5325 18.3529 66.4644 18.1926 66.4644 18.0061V15.9249C66.4644 15.5176 66.6846 15.2968 67.1276 15.26C67.6624 15.2049 68.0818 14.95 68.3859 14.498C68.69 14.046 68.9076 13.347 69.036 12.4036C69.1645 11.4603 69.23 10.2489 69.23 8.76943V4.9723C69.23 4.76996 69.2955 4.60178 69.424 4.47302C69.5524 4.34426 69.7176 4.27856 69.9221 4.27856H80.2427C80.4446 4.27856 80.6123 4.34426 80.7408 4.47302C80.8692 4.60178 80.9348 4.76996 80.9348 4.9723V18.0087C80.9348 18.2137 80.8692 18.3792 80.7408 18.508C80.6123 18.6367 80.4446 18.7024 80.2427 18.7024H77.4745C77.291 18.7024 77.1284 18.6367 76.9895 18.508C76.8506 18.3792 76.7824 18.2137 76.7824 18.0087V7.55014H73.1858V9.24243C73.1858 11.0004 73.0888 12.4877 72.8948 13.707C72.7008 14.9263 72.3731 15.9038 71.9117 16.6344C71.4504 17.3649 70.8317 17.8931 70.0584 18.2163C69.2824 18.5395 68.3151 18.7024 67.1538 18.7024L67.1564 18.6998Z" fill="#1A233C"/>
<path d="M91.093 18.9784C89.5621 18.9784 88.2802 18.7235 87.2473 18.2163C86.2145 17.7092 85.4254 16.9813 84.8801 16.0379C84.3349 15.0945 84.036 13.9961 83.981 12.7374C83.9626 12.3669 83.9521 11.9465 83.9521 11.4761C83.9521 11.0057 83.96 10.5931 83.981 10.241C84.036 8.96393 84.3506 7.86026 84.9221 6.9274C85.4936 5.99454 86.2957 5.2719 87.3286 4.76474C88.3614 4.25758 89.6171 4.00269 91.093 4.00269C92.5689 4.00269 93.7957 4.25758 94.8286 4.76474C95.8614 5.27453 96.6636 5.99454 97.2351 6.9274C97.8065 7.86026 98.1211 8.96655 98.1762 10.241C98.2129 10.5931 98.2312 11.0031 98.2312 11.4761C98.2312 11.9491 98.2129 12.3695 98.1762 12.7374C98.1211 13.9961 97.8196 15.0945 97.277 16.0379C96.7317 16.9813 95.9427 17.7065 94.9098 18.2163C93.877 18.7235 92.6029 18.9784 91.0904 18.9784H91.093ZM91.093 15.9275C91.9974 15.9275 92.679 15.6464 93.1403 15.0814C93.6017 14.5164 93.8508 13.6913 93.8875 12.5981C93.9058 12.3196 93.9163 11.9517 93.9163 11.4892C93.9163 11.0267 93.9058 10.6562 93.8875 10.3803C93.8508 9.30816 93.6017 8.48567 93.1403 7.91282C92.679 7.33996 91.9974 7.05353 91.093 7.05353C90.1886 7.05353 89.5018 7.33996 89.0325 7.91282C88.5607 8.48567 88.309 9.30816 88.2723 10.3803C88.254 10.6588 88.2461 11.0267 88.2461 11.4892C88.2461 11.9517 88.254 12.3222 88.2723 12.5981C88.309 13.6887 88.5633 14.5164 89.0325 15.0814C89.5018 15.6464 90.1912 15.9275 91.093 15.9275Z" fill="#1A233C"/>
<path d="M101.802 18.6998C101.618 18.6998 101.461 18.6341 101.33 18.5053C101.201 18.3766 101.136 18.211 101.136 18.0061V4.9723C101.136 4.76996 101.201 4.60178 101.33 4.47302C101.458 4.34426 101.615 4.27856 101.802 4.27856H110.796C110.998 4.27856 111.165 4.34426 111.294 4.47302C111.422 4.60178 111.488 4.76996 111.488 4.9723V6.85904C111.488 7.06401 111.422 7.22956 111.294 7.35832C111.165 7.48708 110.998 7.55277 110.796 7.55277H105.262V18.0087C105.262 18.2137 105.196 18.3792 105.068 18.508C104.939 18.6367 104.772 18.7024 104.57 18.7024H101.802V18.6998Z" fill="#1A233C"/>
<path d="M127.618 4.47302C127.489 4.34426 127.332 4.27856 127.148 4.27856H124.658C124.474 4.27856 124.322 4.32061 124.202 4.40207C124.081 4.48616 123.976 4.59127 123.885 4.72003L117.769 13.3155V4.9723C117.769 4.76996 117.703 4.60178 117.575 4.47302C117.446 4.34426 117.279 4.27856 117.077 4.27856H114.308C114.125 4.27856 113.968 4.34426 113.837 4.47302C113.708 4.60178 113.643 4.76996 113.643 4.9723V18.0376C113.643 18.2215 113.708 18.3792 113.837 18.508C113.965 18.6367 114.114 18.7024 114.28 18.7024H116.799C116.964 18.7024 117.113 18.6604 117.242 18.5763C117.37 18.4922 117.473 18.3871 117.546 18.2583L123.688 9.6655V18.0087C123.688 18.2137 123.754 18.3792 123.882 18.508C124.01 18.6367 124.168 18.7024 124.354 18.7024H127.122C127.324 18.7024 127.492 18.6367 127.62 18.508C127.749 18.3792 127.814 18.2137 127.814 18.0087V4.91449C127.814 4.74894 127.749 4.59915 127.62 4.47039L127.618 4.47302Z" fill="#1A233C"/>
<path d="M143.611 4.47302C143.483 4.34426 143.315 4.27856 143.113 4.27856H137.026C135.181 4.27856 133.757 4.68061 132.75 5.48471C131.744 6.28881 131.243 7.47657 131.243 9.04798C131.243 10.4906 131.731 11.6416 132.708 12.5009C133.01 12.7663 133.364 12.987 133.754 13.171L130.936 17.7301C130.881 17.8037 130.839 17.8773 130.813 17.9535C130.784 18.0271 130.771 18.0928 130.771 18.148C130.771 18.2951 130.826 18.4239 130.936 18.5369C131.046 18.6472 131.185 18.7024 131.351 18.7024H134.145C134.292 18.7024 134.426 18.6604 134.546 18.5763C134.667 18.4922 134.764 18.395 134.837 18.2846L137.369 13.9304H139.569V18.0087C139.569 18.2137 139.634 18.3792 139.763 18.508C139.891 18.6367 140.056 18.7024 140.261 18.7024H143.11C143.312 18.7024 143.48 18.6367 143.608 18.508C143.737 18.3792 143.802 18.2137 143.802 18.0087V4.9723C143.802 4.76996 143.737 4.60178 143.608 4.47302H143.611ZM139.653 11.0188H137.052C136.334 11.0188 135.802 10.8349 135.461 10.4643C135.12 10.0938 134.95 9.62346 134.95 9.0506C134.95 8.36738 135.133 7.8865 135.503 7.60796C135.873 7.32941 136.434 7.19277 137.191 7.19277H139.653V11.0214V11.0188Z" fill="#1A233C"/>
<path d="M155.701 23.9712C155.497 23.9712 155.332 23.9055 155.203 23.7767C155.075 23.6479 155.009 23.4798 155.009 23.2774V4.97233C155.009 4.77 155.075 4.60182 155.203 4.47306C155.332 4.3443 155.497 4.2786 155.701 4.2786H158.331C158.533 4.2786 158.7 4.3443 158.829 4.47306C158.957 4.60182 159.023 4.77 159.023 4.97233V6.02607C159.466 5.43482 160.037 4.94868 160.737 4.57029C161.437 4.19189 162.315 4.00269 163.366 4.00269C164.326 4.00269 165.16 4.1551 165.87 4.45992C166.58 4.76474 167.181 5.20095 167.668 5.7633C168.156 6.32827 168.536 7.00623 168.803 7.80245C169.071 8.59867 169.223 9.49474 169.259 10.4933C169.278 10.8454 169.286 11.1765 169.286 11.4918C169.286 11.8072 169.275 12.1488 169.259 12.5193C169.241 13.4627 169.097 14.3325 168.83 15.1261C168.562 15.9223 168.179 16.6055 167.681 17.1784C167.183 17.7512 166.578 18.1953 165.87 18.5106C165.16 18.826 164.326 18.9836 163.366 18.9836C162.407 18.9836 161.61 18.8128 160.918 18.4712C160.226 18.1296 159.66 17.6619 159.217 17.0706V23.2827C159.217 23.485 159.151 23.6532 159.023 23.782C158.894 23.9107 158.737 23.9764 158.553 23.9764H155.704L155.701 23.9712ZM162.121 15.649C162.821 15.649 163.374 15.4966 163.781 15.1918C164.187 14.8869 164.475 14.4849 164.651 13.9856C164.827 13.4863 164.931 12.9398 164.968 12.3485C165.005 11.7756 165.005 11.2028 164.968 10.6299C164.931 10.0387 164.824 9.49211 164.651 8.99283C164.478 8.49355 164.184 8.0915 163.781 7.78668C163.374 7.48186 162.821 7.32945 162.121 7.32945C161.421 7.32945 160.887 7.48712 160.462 7.80245C160.037 8.11778 159.733 8.51458 159.55 8.99546C159.366 9.47634 159.253 9.99401 159.217 10.5485C159.198 10.8822 159.19 11.2238 159.19 11.5759C159.19 11.9281 159.198 12.2802 159.217 12.6297C159.235 13.1473 159.35 13.6335 159.563 14.0855C159.775 14.5401 160.09 14.9132 160.504 15.2075C160.918 15.5045 161.458 15.6516 162.124 15.6516L162.121 15.649Z" fill="#1A233C"/>
<path d="M185.822 4.45738C185.701 4.3365 185.567 4.27607 185.421 4.27607H182.875C182.652 4.27607 182.482 4.33125 182.364 4.44162C182.243 4.55198 182.157 4.68337 182.102 4.83053L178.565 13.4181L175.129 4.83053C175.074 4.70176 174.99 4.57563 174.88 4.45475C174.77 4.33388 174.602 4.27344 174.382 4.27344H171.726C171.561 4.27344 171.417 4.33388 171.296 4.45475C171.176 4.57563 171.107 4.71753 171.089 4.88571C171.089 4.97768 171.126 5.09856 171.199 5.24571L176.668 18.0193L176.455 18.5317C176.214 19.0862 176.002 19.5198 175.818 19.8351C175.635 20.1505 175.425 20.3764 175.194 20.5157C174.964 20.655 174.673 20.7233 174.324 20.7233H173.412C173.21 20.7233 173.042 20.789 172.914 20.9178C172.785 21.0465 172.72 21.2042 172.72 21.3881V23.3012C172.72 23.4851 172.785 23.648 172.914 23.7873C173.042 23.9266 173.21 23.9949 173.412 23.9949H174.712C175.485 23.9949 176.175 23.8372 176.772 23.5219C177.373 23.2066 177.894 22.773 178.335 22.2185C178.778 21.6641 179.187 21.015 179.567 20.2766C179.944 19.5382 180.309 18.742 180.66 17.8906L185.916 5.24309C185.953 5.15111 185.976 5.07228 185.984 5.00659C185.992 4.94089 185.997 4.89096 185.997 4.85418C185.997 4.70702 185.937 4.573 185.816 4.45213L185.822 4.45738Z" fill="#1A233C"/>
</svg>
