<svg width="34" height="26" viewBox="0 0 34 26" fill="none" xmlns="http://www.w3.org/2000/svg">
<path fill-rule="evenodd" clip-rule="evenodd" d="M2.52299 11.3315C11.5359 7.79737 17.5459 5.46748 20.553 4.34179C29.1389 1.12773 30.923 0.569414 32.0858 0.550978C32.3416 0.546923 32.9134 0.603968 33.2838 0.874482C33.5966 1.1029 33.6827 1.41146 33.7238 1.62802C33.765 1.84458 33.8163 2.33792 33.7755 2.7234C33.3103 7.12321 31.297 17.8004 30.2728 22.7282C29.8394 24.8134 28.9861 25.5125 28.1599 25.581C26.3645 25.7297 25.0012 24.5131 23.2623 23.4872C20.5412 21.8819 19.004 20.8825 16.3627 19.316C13.3102 17.5057 15.289 16.5107 17.0286 14.8845C17.4839 14.459 25.3944 7.98323 25.5475 7.39578C25.5667 7.32231 25.5844 7.04844 25.4037 6.90383C25.2229 6.75922 24.9561 6.80867 24.7635 6.848C24.4906 6.90375 20.1437 9.48961 11.7227 14.6056C10.4888 15.3681 9.37119 15.7397 8.36986 15.7202C7.26597 15.6987 5.14253 15.1585 3.56397 14.6966C1.62781 14.1302 0.0889805 13.8307 0.222978 12.8687C0.292772 12.3677 1.05944 11.8553 2.52299 11.3315Z" fill="white"/>
</svg>
